<svg width="369" height="27" viewBox="0 0 369 27" fill="none" xmlns="http://www.w3.org/2000/svg">
<path d="M0.304688 0.804688C0.734375 0.804688 1.1901 0.811198 1.67188 0.824219C2.15365 0.824219 2.64844 0.824219 3.15625 0.824219C3.66406 0.824219 4.17188 0.830729 4.67969 0.84375C5.1875 0.84375 5.67578 0.84375 6.14453 0.84375C6.19661 0.84375 6.39844 0.84375 6.75 0.84375C7.10156 0.830729 7.50521 0.824219 7.96094 0.824219C8.41667 0.824219 8.8724 0.824219 9.32812 0.824219C9.79688 0.811198 10.1745 0.804688 10.4609 0.804688V2.73828H9.52344C8.92448 2.73828 8.46224 2.76432 8.13672 2.81641C7.82422 2.85547 7.58984 2.93359 7.43359 3.05078C7.29036 3.15495 7.20573 3.29818 7.17969 3.48047C7.15365 3.66276 7.14062 3.89062 7.14062 4.16406V11.8398H20.207V4.00781C20.207 3.69531 20.168 3.45443 20.0898 3.28516C20.0247 3.10286 19.8945 2.97266 19.6992 2.89453C19.5169 2.81641 19.2695 2.77083 18.957 2.75781C18.6576 2.74479 18.2734 2.73828 17.8047 2.73828H16.8672V0.804688C17.8177 0.830729 18.7552 0.84375 19.6797 0.84375C20.6042 0.84375 21.4831 0.84375 22.3164 0.84375C22.3685 0.84375 22.5833 0.84375 22.9609 0.84375C23.3385 0.830729 23.7747 0.824219 24.2695 0.824219C24.7773 0.824219 25.2852 0.824219 25.793 0.824219C26.3138 0.811198 26.7305 0.804688 27.043 0.804688V2.73828H26.125C25.5391 2.73828 25.0833 2.76432 24.7578 2.81641C24.4453 2.85547 24.2109 2.92708 24.0547 3.03125C23.9115 3.13542 23.8268 3.26562 23.8008 3.42188C23.7747 3.57812 23.7617 3.77344 23.7617 4.00781V22.4258C23.7617 22.5299 23.7552 22.6341 23.7422 22.7383C23.7422 22.8294 23.7422 22.9206 23.7422 23.0117C23.7422 23.194 23.7617 23.3503 23.8008 23.4805C23.8529 23.6107 23.957 23.7214 24.1133 23.8125C24.2826 23.9036 24.5234 23.9688 24.8359 24.0078C25.1484 24.0469 25.5781 24.0664 26.125 24.0664H27.043V26C26.6133 26 26.1901 26 25.7734 26C25.3568 25.987 24.9271 25.9805 24.4844 25.9805C24.0547 25.9805 23.599 25.9805 23.1172 25.9805C22.6354 25.9674 22.1016 25.9609 21.5156 25.9609C21.0208 25.9609 20.5651 25.9674 20.1484 25.9805C19.7318 25.9805 19.3346 25.9805 18.957 25.9805C18.5924 25.9805 18.2409 25.987 17.9023 26C17.5638 26 17.2188 26 16.8672 26V24.0664H17.8047C18.3906 24.0664 18.8464 24.0339 19.1719 23.9688C19.4974 23.8906 19.7383 23.7865 19.8945 23.6562C20.0508 23.513 20.1419 23.3503 20.168 23.168C20.194 22.9727 20.207 22.7513 20.207 22.5039V13.9297H7.14062V22.6211C7.14062 22.9987 7.17318 23.2852 7.23828 23.4805C7.30339 23.6758 7.42057 23.819 7.58984 23.9102C7.77214 24.0013 8.01953 24.0534 8.33203 24.0664C8.64453 24.0664 9.04167 24.0664 9.52344 24.0664H10.4609V26C10.0964 26 9.74479 26 9.40625 26C9.06771 25.987 8.71615 25.9805 8.35156 25.9805C8 25.9805 7.61589 25.9805 7.19922 25.9805C6.78255 25.9674 6.32031 25.9609 5.8125 25.9609C5.22656 25.9609 4.6862 25.9674 4.19141 25.9805C3.70964 25.9805 3.25391 25.9805 2.82422 25.9805C2.39453 25.9805 1.97135 25.987 1.55469 26C1.15104 26 0.734375 26 0.304688 26V24.0664H1.22266C1.80859 24.0664 2.26432 24.0273 2.58984 23.9492C2.91536 23.8711 3.14974 23.7669 3.29297 23.6367C3.4362 23.4935 3.52083 23.3307 3.54688 23.1484C3.57292 22.9661 3.58594 22.7643 3.58594 22.543V3.94922C3.58594 3.72786 3.57292 3.53906 3.54688 3.38281C3.52083 3.22656 3.42969 3.10286 3.27344 3.01172C3.13021 2.90755 2.89583 2.83594 2.57031 2.79688C2.25781 2.75781 1.80859 2.73828 1.22266 2.73828H0.304688V0.804688ZM33.4688 0.316406C34.1198 0.316406 34.6341 0.479167 35.0117 0.804688C35.3893 1.11719 35.5781 1.55339 35.5781 2.11328C35.5781 2.6862 35.3893 3.14193 35.0117 3.48047C34.6471 3.80599 34.1328 3.96875 33.4688 3.96875C32.8177 3.96875 32.3099 3.80599 31.9453 3.48047C31.5807 3.15495 31.3984 2.69922 31.3984 2.11328C31.3984 1.55339 31.5807 1.11719 31.9453 0.804688C32.3099 0.479167 32.8177 0.316406 33.4688 0.316406ZM35.5195 22.9531C35.5195 23.2656 35.5716 23.513 35.6758 23.6953C35.7799 23.8646 35.9492 23.9948 36.1836 24.0859C36.418 24.1641 36.7174 24.2161 37.082 24.2422C37.4596 24.2552 37.9154 24.2617 38.4492 24.2617V26C38.1107 26 37.6549 26 37.082 26C36.5091 25.987 35.9362 25.9805 35.3633 25.9805C34.7904 25.9805 34.2826 25.9805 33.8398 25.9805C33.3971 25.9674 33.1367 25.9609 33.0586 25.9609C32.3164 25.9609 31.6589 25.9674 31.0859 25.9805C30.526 25.9935 29.9466 26 29.3477 26V24.2617C30.0508 24.2617 30.5977 24.2422 30.9883 24.2031C31.3789 24.1641 31.6654 24.099 31.8477 24.0078C32.043 23.9167 32.1536 23.793 32.1797 23.6367C32.2188 23.4674 32.2383 23.2526 32.2383 22.9922V10.9609C32.2383 10.7786 32.1862 10.6419 32.082 10.5508C31.9909 10.4596 31.8346 10.3945 31.6133 10.3555C31.3919 10.3034 31.099 10.2773 30.7344 10.2773C30.3828 10.2643 29.9531 10.2578 29.4453 10.2578V8.51953C30.5521 8.51953 31.5938 8.51302 32.5703 8.5C33.5469 8.48698 34.5299 8.46094 35.5195 8.42188V22.9531ZM54.7969 13.9297H52.9609C52.9089 12.6276 52.4727 11.625 51.6523 10.9219C50.8451 10.2057 49.6732 9.84766 48.1367 9.84766C47.4857 9.84766 46.9193 9.92578 46.4375 10.082C45.9557 10.2383 45.5521 10.4466 45.2266 10.707C44.901 10.9674 44.6602 11.2734 44.5039 11.625C44.3477 11.9635 44.2695 12.3151 44.2695 12.6797C44.2695 13.0833 44.3737 13.4414 44.582 13.7539C44.8034 14.0534 45.1094 14.3203 45.5 14.5547C45.8906 14.7891 46.3529 14.9974 46.8867 15.1797C47.4336 15.362 48.0326 15.5378 48.6836 15.707C49.7383 15.9805 50.6888 16.2669 51.5352 16.5664C52.3945 16.8659 53.1172 17.224 53.7031 17.6406C54.3021 18.0443 54.7643 18.5391 55.0898 19.125C55.4154 19.6979 55.5781 20.4076 55.5781 21.2539C55.5781 22.0872 55.4089 22.8229 55.0703 23.4609C54.7318 24.099 54.25 24.6393 53.625 25.082C53.013 25.5117 52.2708 25.8372 51.3984 26.0586C50.526 26.293 49.556 26.4102 48.4883 26.4102C47.1341 26.4102 46.0078 26.2474 45.1094 25.9219C44.2109 25.5964 43.4753 25.082 42.9023 24.3789L42.707 26C42.4076 25.987 42.1211 25.9805 41.8477 25.9805C41.5742 25.9674 41.2878 25.974 40.9883 26V20.1992H42.8828C42.9609 21.7096 43.4492 22.8164 44.3477 23.5195C45.2461 24.2096 46.4766 24.5547 48.0391 24.5547C48.7031 24.5547 49.3086 24.4896 49.8555 24.3594C50.4154 24.2161 50.8906 24.0273 51.2812 23.793C51.6719 23.5586 51.9779 23.2721 52.1992 22.9336C52.4206 22.5951 52.5312 22.1914 52.5312 21.7227C52.5312 21.2148 52.375 20.7852 52.0625 20.4336C51.763 20.082 51.3529 19.776 50.832 19.5156C50.3242 19.2422 49.7253 19.0078 49.0352 18.8125C48.3581 18.6042 47.6419 18.3893 46.8867 18.168C45.9622 17.8815 45.1484 17.5885 44.4453 17.2891C43.7552 16.9766 43.1758 16.625 42.707 16.2344C42.2383 15.8438 41.8867 15.388 41.6523 14.8672C41.418 14.3464 41.3008 13.7344 41.3008 13.0312C41.3008 12.3542 41.444 11.7161 41.7305 11.1172C42.0299 10.5182 42.4531 9.99089 43 9.53516C43.5469 9.06641 44.2044 8.70833 44.9727 8.46094C45.7539 8.20052 46.6263 8.07031 47.5898 8.07031C48.6576 8.07031 49.6667 8.22656 50.6172 8.53906C51.5677 8.83854 52.3359 9.29427 52.9219 9.90625C52.9219 9.89323 52.9414 9.82161 52.9805 9.69141C53.0326 9.54818 53.0846 9.39193 53.1367 9.22266C53.1888 9.02734 53.2539 8.79297 53.332 8.51953C53.5664 8.53255 53.7878 8.53906 53.9961 8.53906C54.1784 8.53906 54.3411 8.53906 54.4844 8.53906C54.6406 8.52604 54.7448 8.51953 54.7969 8.51953V13.9297ZM64.0156 3.57812V8.51953H68.7031V10.2578H64.0352V20.043C64.0352 20.707 64.0417 21.306 64.0547 21.8398C64.0677 22.3607 64.1263 22.8099 64.2305 23.1875C64.3477 23.5651 64.5299 23.8581 64.7773 24.0664C65.0247 24.2617 65.3828 24.3594 65.8516 24.3594C66.0339 24.3594 66.2161 24.3268 66.3984 24.2617C66.5807 24.1836 66.737 24.0599 66.8672 23.8906C67.0104 23.7214 67.1211 23.5065 67.1992 23.2461C67.2904 22.9727 67.3359 22.6406 67.3359 22.25L69.1133 22.0742C69.1133 22.8424 69.0026 23.5 68.7812 24.0469C68.5729 24.5938 68.2865 25.043 67.9219 25.3945C67.5703 25.7331 67.1536 25.987 66.6719 26.1562C66.1901 26.3255 65.6823 26.4102 65.1484 26.4102C64.237 26.4102 63.4948 26.2604 62.9219 25.9609C62.362 25.6615 61.9193 25.2513 61.5938 24.7305C61.2812 24.1966 61.0664 23.5456 60.9492 22.7773C60.832 22.0091 60.7734 21.1562 60.7734 20.2188V10.2578H57.5703V8.71484C57.8958 8.70182 58.2604 8.68229 58.6641 8.65625C59.0677 8.61719 59.4518 8.58464 59.8164 8.55859C60.2461 8.51953 60.6758 8.48047 61.1055 8.44141C61.1185 8.35026 61.138 8.1875 61.1641 7.95312C61.1901 7.70573 61.2161 7.42578 61.2422 7.11328C61.2682 6.78776 61.3008 6.45573 61.3398 6.11719C61.3789 5.76562 61.4115 5.44661 61.4375 5.16016C61.4635 4.86068 61.4831 4.61328 61.4961 4.41797C61.5221 4.20964 61.5352 4.09896 61.5352 4.08594L64.0156 3.57812ZM80.9883 8.07031C82.3555 8.07031 83.612 8.28516 84.7578 8.71484C85.9036 9.14453 86.8867 9.76302 87.707 10.5703C88.5404 11.3776 89.1849 12.3542 89.6406 13.5C90.0964 14.6458 90.3242 15.9023 90.3242 17.2695C90.3242 18.5846 90.0964 19.8151 89.6406 20.9609C89.1849 22.0938 88.5469 23.0638 87.7266 23.8711C86.9062 24.6784 85.9232 25.3034 84.7773 25.7461C83.6315 26.1888 82.3685 26.4102 80.9883 26.4102C79.6081 26.4102 78.3451 26.1953 77.1992 25.7656C76.0664 25.3229 75.0898 24.6979 74.2695 23.8906C73.4492 23.0703 72.8112 22.0938 72.3555 20.9609C71.9128 19.8151 71.6914 18.5846 71.6914 17.2695C71.6914 15.9023 71.9193 14.6523 72.375 13.5195C72.8307 12.3737 73.4688 11.3971 74.2891 10.5898C75.1094 9.76953 76.0859 9.14453 77.2188 8.71484C78.3646 8.28516 79.6211 8.07031 80.9883 8.07031ZM80.9883 10.1016C80.0768 10.1016 79.2565 10.2708 78.5273 10.6094C77.7982 10.9479 77.1732 11.4232 76.6523 12.0352C76.1445 12.6471 75.7539 13.4023 75.4805 14.3008C75.207 15.1862 75.0703 16.1693 75.0703 17.25C75.0703 18.2656 75.207 19.2227 75.4805 20.1211C75.7669 21.0065 76.1641 21.7682 76.6719 22.4062C77.1927 23.0312 77.8177 23.513 78.5469 23.8516C79.276 24.1901 80.0898 24.3594 80.9883 24.3594C81.8867 24.3594 82.7005 24.1901 83.4297 23.8516C84.1589 23.513 84.7839 23.0312 85.3047 22.4062C85.8255 21.7682 86.2227 21.0065 86.4961 20.1211C86.7826 19.2227 86.9258 18.2656 86.9258 17.25C86.9258 16.1823 86.7826 15.1992 86.4961 14.3008C86.2227 13.4023 85.8255 12.6471 85.3047 12.0352C84.7969 11.4232 84.1719 10.9479 83.4297 10.6094C82.7005 10.2708 81.8867 10.1016 80.9883 10.1016ZM107.395 12.1914H106.223C105.962 11.5664 105.637 11.1432 105.246 10.9219C104.855 10.6875 104.322 10.5703 103.645 10.5703C103.007 10.5703 102.421 10.7201 101.887 11.0195C101.353 11.319 100.891 11.7487 100.5 12.3086C100.109 12.8555 99.8034 13.5195 99.582 14.3008C99.3737 15.069 99.263 15.9284 99.25 16.8789C99.237 16.8919 99.2305 17.0547 99.2305 17.3672C99.2305 17.6667 99.224 18.0443 99.2109 18.5C99.2109 18.9557 99.2109 19.4505 99.2109 19.9844C99.2109 20.5052 99.2109 21 99.2109 21.4688C99.2109 21.9375 99.2109 22.3346 99.2109 22.6602C99.2109 22.9727 99.2109 23.1419 99.2109 23.168C99.2109 23.4414 99.263 23.6562 99.3672 23.8125C99.4844 23.9557 99.6732 24.0664 99.9336 24.1445C100.194 24.2096 100.539 24.2487 100.969 24.2617C101.398 24.2617 101.926 24.2617 102.551 24.2617V26C102.134 26 101.73 26 101.34 26C100.962 25.987 100.565 25.9805 100.148 25.9805C99.7318 25.9805 99.2891 25.9805 98.8203 25.9805C98.3646 25.9674 97.8568 25.9609 97.2969 25.9609C96.8151 25.9609 96.3789 25.9674 95.9883 25.9805C95.5977 25.9805 95.2266 25.9805 94.875 25.9805C94.5365 25.9805 94.2044 25.987 93.8789 26C93.5534 26 93.2148 26 92.8633 26V24.2617C93.6055 24.2617 94.1784 24.2487 94.582 24.2227C94.9987 24.1836 95.3047 24.1185 95.5 24.0273C95.6953 23.9362 95.806 23.806 95.832 23.6367C95.8711 23.4674 95.8906 23.2526 95.8906 22.9922V11.1562C95.8906 10.9349 95.8516 10.7656 95.7734 10.6484C95.7083 10.5182 95.5651 10.4271 95.3438 10.375C95.1354 10.3099 94.8359 10.2773 94.4453 10.2773C94.0677 10.2643 93.5729 10.2578 92.9609 10.2578V8.51953C93.1042 8.51953 93.3255 8.52604 93.625 8.53906C93.9375 8.53906 94.2435 8.53906 94.543 8.53906H95.6953C96.2422 8.53906 96.7891 8.52604 97.3359 8.5C97.8958 8.47396 98.4688 8.45443 99.0547 8.44141V11.9961C99.6797 10.7721 100.546 9.8151 101.652 9.125C102.772 8.42188 104.094 8.07031 105.617 8.07031C106.19 8.07031 106.783 8.10938 107.395 8.1875V12.1914ZM114.211 0.316406C114.862 0.316406 115.376 0.479167 115.754 0.804688C116.132 1.11719 116.32 1.55339 116.32 2.11328C116.32 2.6862 116.132 3.14193 115.754 3.48047C115.389 3.80599 114.875 3.96875 114.211 3.96875C113.56 3.96875 113.052 3.80599 112.688 3.48047C112.323 3.15495 112.141 2.69922 112.141 2.11328C112.141 1.55339 112.323 1.11719 112.688 0.804688C113.052 0.479167 113.56 0.316406 114.211 0.316406ZM116.262 22.9531C116.262 23.2656 116.314 23.513 116.418 23.6953C116.522 23.8646 116.691 23.9948 116.926 24.0859C117.16 24.1641 117.46 24.2161 117.824 24.2422C118.202 24.2552 118.658 24.2617 119.191 24.2617V26C118.853 26 118.397 26 117.824 26C117.251 25.987 116.678 25.9805 116.105 25.9805C115.533 25.9805 115.025 25.9805 114.582 25.9805C114.139 25.9674 113.879 25.9609 113.801 25.9609C113.059 25.9609 112.401 25.9674 111.828 25.9805C111.268 25.9935 110.689 26 110.09 26V24.2617C110.793 24.2617 111.34 24.2422 111.73 24.2031C112.121 24.1641 112.408 24.099 112.59 24.0078C112.785 23.9167 112.896 23.793 112.922 23.6367C112.961 23.4674 112.98 23.2526 112.98 22.9922V10.9609C112.98 10.7786 112.928 10.6419 112.824 10.5508C112.733 10.4596 112.577 10.3945 112.355 10.3555C112.134 10.3034 111.841 10.2773 111.477 10.2773C111.125 10.2643 110.695 10.2578 110.188 10.2578V8.51953C111.294 8.51953 112.336 8.51302 113.312 8.5C114.289 8.48698 115.272 8.46094 116.262 8.42188V22.9531ZM137.727 14.75H135.812C135.747 13.1745 135.279 12.0091 134.406 11.2539C133.547 10.4857 132.355 10.1016 130.832 10.1016C129.908 10.1016 129.081 10.2708 128.352 10.6094C127.622 10.9349 127.004 11.4036 126.496 12.0156C126.001 12.6276 125.617 13.3763 125.344 14.2617C125.083 15.1471 124.953 16.1432 124.953 17.25C124.953 18.3698 125.09 19.3529 125.363 20.1992C125.637 21.0326 126.027 21.7682 126.535 22.4062C127.056 23.0312 127.681 23.513 128.41 23.8516C129.139 24.1901 129.96 24.3594 130.871 24.3594C132.173 24.3594 133.26 24.0404 134.133 23.4023C135.018 22.7643 135.637 21.8073 135.988 20.5312L138.273 20.9219C138.065 21.8203 137.733 22.6211 137.277 23.3242C136.835 24.0143 136.281 24.5742 135.617 25.0039C134.953 25.4336 134.191 25.7721 133.332 26.0195C132.473 26.2799 131.529 26.4102 130.5 26.4102C129.133 26.4102 127.896 26.1953 126.789 25.7656C125.682 25.3229 124.738 24.724 123.957 23.9688C123.176 23.2135 122.57 22.276 122.141 21.1562C121.711 20.0234 121.496 18.7669 121.496 17.3867C121.496 16.0846 121.704 14.8737 122.121 13.7539C122.538 12.6211 123.124 11.638 123.879 10.8047C124.647 9.97135 125.552 9.30729 126.594 8.8125C127.648 8.31771 128.814 8.07031 130.09 8.07031C130.611 8.07031 131.125 8.10286 131.633 8.16797C132.141 8.23307 132.622 8.34375 133.078 8.5C133.547 8.65625 133.977 8.87109 134.367 9.14453C134.771 9.41797 135.129 9.75651 135.441 10.1602L135.93 8.61719C135.982 8.61719 136.092 8.6237 136.262 8.63672C136.444 8.63672 136.633 8.63672 136.828 8.63672C137.023 8.63672 137.206 8.64323 137.375 8.65625C137.557 8.65625 137.674 8.65625 137.727 8.65625V14.75ZM157.18 21.625C157.18 22.3021 157.199 22.8229 157.238 23.1875C157.29 23.5391 157.382 23.7995 157.512 23.9688C157.642 24.125 157.824 24.2161 158.059 24.2422C158.306 24.2552 158.625 24.2617 159.016 24.2617H159.895V26C158.866 26 157.844 26.0065 156.828 26.0195C155.826 26.0326 154.888 26.0521 154.016 26.0781V23.4023C153.234 24.4049 152.303 25.1602 151.223 25.668C150.155 26.1628 148.905 26.4102 147.473 26.4102C146.535 26.4102 145.689 26.2734 144.934 26C144.178 25.7396 143.534 25.375 143 24.9062C142.466 24.4375 142.049 23.8776 141.75 23.2266C141.464 22.5755 141.32 21.8594 141.32 21.0781C141.32 20.2448 141.49 19.4896 141.828 18.8125C142.167 18.1224 142.661 17.5365 143.312 17.0547C143.964 16.5729 144.751 16.2018 145.676 15.9414C146.613 15.668 147.681 15.5312 148.879 15.5312C149.699 15.5312 150.526 15.5964 151.359 15.7266C152.193 15.8438 153.039 16.013 153.898 16.2344V13.4219C153.898 12.237 153.501 11.332 152.707 10.707C151.926 10.082 150.721 9.76953 149.094 9.76953C147.727 9.76953 146.652 10.0365 145.871 10.5703C145.103 11.0911 144.589 11.9049 144.328 13.0117L142.531 12.7969L142.785 9.35938C143.618 8.98177 144.589 8.67578 145.695 8.44141C146.815 8.19401 148.072 8.07031 149.465 8.07031C150.845 8.07031 152.023 8.19401 153 8.44141C153.977 8.6888 154.771 9.06641 155.383 9.57422C156.008 10.082 156.464 10.7331 156.75 11.5273C157.036 12.3086 157.18 13.2331 157.18 14.3008V21.625ZM149.621 17.1719C148.84 17.1719 148.137 17.263 147.512 17.4453C146.887 17.6146 146.353 17.862 145.91 18.1875C145.48 18.513 145.148 18.9102 144.914 19.3789C144.68 19.8477 144.562 20.3815 144.562 20.9805C144.562 21.5143 144.654 21.9896 144.836 22.4062C145.031 22.8099 145.298 23.1549 145.637 23.4414C145.988 23.7279 146.405 23.9557 146.887 24.125C147.368 24.2943 147.896 24.3724 148.469 24.3594C149.094 24.3724 149.725 24.2812 150.363 24.0859C151.014 23.8776 151.6 23.5911 152.121 23.2266C152.642 22.849 153.065 22.3802 153.391 21.8203C153.729 21.2474 153.898 20.5638 153.898 19.7695V17.8555C153.117 17.6341 152.375 17.4648 151.672 17.3477C150.969 17.2305 150.285 17.1719 149.621 17.1719ZM167.375 22.8945C167.375 23.2201 167.434 23.474 167.551 23.6562C167.681 23.8385 167.87 23.9753 168.117 24.0664C168.378 24.1576 168.69 24.2161 169.055 24.2422C169.432 24.2552 169.875 24.2617 170.383 24.2617V26C170.018 26 169.66 26 169.309 26C168.957 26 168.592 26 168.215 26C167.85 26 167.466 26 167.062 26C166.659 25.987 166.216 25.974 165.734 25.9609C165.266 25.9609 164.829 25.9674 164.426 25.9805C164.022 25.9805 163.638 25.9805 163.273 25.9805C162.909 25.9805 162.557 25.987 162.219 26C161.88 26 161.535 26 161.184 26C161.184 25.8958 161.184 25.7656 161.184 25.6094C161.184 25.4531 161.177 25.2969 161.164 25.1406C161.164 24.9714 161.164 24.8086 161.164 24.6523C161.164 24.4961 161.164 24.3659 161.164 24.2617C161.906 24.2617 162.473 24.2292 162.863 24.1641C163.267 24.099 163.56 24.0013 163.742 23.8711C163.924 23.7409 164.029 23.5781 164.055 23.3828C164.094 23.1875 164.113 22.9531 164.113 22.6797V3.5C164.113 3.26562 164.048 3.08333 163.918 2.95312C163.801 2.82292 163.618 2.73177 163.371 2.67969C163.124 2.61458 162.824 2.57552 162.473 2.5625C162.121 2.54948 161.717 2.53646 161.262 2.52344V0.765625C162.29 0.765625 163.286 0.759115 164.25 0.746094C165.214 0.733073 166.255 0.713542 167.375 0.6875V22.8945ZM182.707 0.804688C183.488 0.830729 184.302 0.84375 185.148 0.84375C186.008 0.84375 186.789 0.84375 187.492 0.84375C187.557 0.84375 187.759 0.84375 188.098 0.84375C188.449 0.830729 188.827 0.824219 189.23 0.824219C189.634 0.824219 190.012 0.824219 190.363 0.824219C190.728 0.811198 190.956 0.804688 191.047 0.804688L198.781 21.8594C198.794 21.7943 198.911 21.4557 199.133 20.8438C199.367 20.2188 199.66 19.418 200.012 18.4414C200.376 17.4518 200.786 16.3451 201.242 15.1211C201.698 13.8841 202.16 12.6276 202.629 11.3516C203.111 10.0625 203.579 8.80599 204.035 7.58203C204.491 6.34505 204.901 5.23828 205.266 4.26172C205.63 3.27214 205.923 2.46484 206.145 1.83984C206.379 1.21484 206.509 0.869792 206.535 0.804688C206.587 0.804688 206.724 0.804688 206.945 0.804688C207.167 0.804688 207.427 0.811198 207.727 0.824219C208.026 0.824219 208.339 0.830729 208.664 0.84375C209.003 0.84375 209.322 0.85026 209.621 0.863281C209.921 0.863281 210.174 0.863281 210.383 0.863281C210.591 0.863281 210.721 0.863281 210.773 0.863281C211.099 0.863281 211.444 0.863281 211.809 0.863281C212.186 0.863281 212.557 0.863281 212.922 0.863281C213.299 0.85026 213.664 0.84375 214.016 0.84375C214.367 0.830729 214.693 0.817708 214.992 0.804688V2.73828H213.781C213.273 2.73828 212.876 2.77083 212.59 2.83594C212.316 2.88802 212.115 2.97266 211.984 3.08984C211.854 3.19401 211.776 3.33073 211.75 3.5C211.724 3.66927 211.711 3.86458 211.711 4.08594V22.3281C211.711 22.7448 211.737 23.0703 211.789 23.3047C211.854 23.5391 211.965 23.7148 212.121 23.832C212.277 23.9362 212.492 24.0013 212.766 24.0273C213.052 24.0534 213.417 24.0664 213.859 24.0664H215.051V26C214.595 26 214.152 26 213.723 26C213.306 25.987 212.87 25.9805 212.414 25.9805C211.971 25.9805 211.496 25.9805 210.988 25.9805C210.48 25.9674 209.914 25.9609 209.289 25.9609C208.807 25.9609 208.378 25.9674 208 25.9805C207.635 25.9805 207.297 25.9805 206.984 25.9805C206.672 25.9805 206.366 25.987 206.066 26C205.78 26 205.474 26 205.148 26V24.0664H206.32C206.841 24.0664 207.245 24.0273 207.531 23.9492C207.831 23.8581 208.046 23.7344 208.176 23.5781C208.319 23.4219 208.404 23.2396 208.43 23.0312C208.456 22.8099 208.469 22.569 208.469 22.3086V2.5625L206.691 7.21094L199.621 26H197.414C196.932 24.763 196.438 23.4674 195.93 22.1133C195.422 20.7591 194.908 19.3919 194.387 18.0117C193.879 16.6185 193.365 15.2318 192.844 13.8516C192.323 12.4583 191.815 11.1042 191.32 9.78906C190.826 8.47396 190.35 7.21094 189.895 6C189.439 4.78906 189.009 3.66927 188.605 2.64062V22.4648C188.605 22.8424 188.625 23.1419 188.664 23.3633C188.716 23.5716 188.814 23.7279 188.957 23.832C189.1 23.9362 189.309 24.0013 189.582 24.0273C189.855 24.0534 190.22 24.0664 190.676 24.0664H191.848V26C191.509 26 191.19 26 190.891 26C190.591 25.987 190.272 25.9805 189.934 25.9805C189.608 25.9805 189.257 25.9805 188.879 25.9805C188.501 25.9674 188.072 25.9609 187.59 25.9609C187.069 25.9609 186.587 25.9674 186.145 25.9805C185.702 25.9805 185.279 25.9805 184.875 25.9805C184.484 25.9805 184.1 25.987 183.723 26C183.345 26 182.961 26 182.57 26V24.0664H183.781C184.367 24.0664 184.803 24.0339 185.09 23.9688C185.389 23.9036 185.598 23.806 185.715 23.6758C185.845 23.5456 185.91 23.3763 185.91 23.168C185.923 22.9596 185.93 22.7122 185.93 22.4258L185.949 4.14453C185.949 3.81901 185.91 3.5651 185.832 3.38281C185.754 3.1875 185.63 3.04427 185.461 2.95312C185.305 2.86198 185.09 2.80339 184.816 2.77734C184.556 2.7513 184.237 2.73828 183.859 2.73828H182.707V0.804688ZM234.816 17.8555H220.988C221.001 18.8971 221.164 19.8151 221.477 20.6094C221.789 21.4036 222.232 22.0807 222.805 22.6406C223.378 23.1875 224.061 23.6107 224.855 23.9102C225.663 24.2096 226.555 24.3594 227.531 24.3594C228.898 24.3594 230.083 24.0794 231.086 23.5195C232.089 22.9596 232.863 22.0938 233.41 20.9219L235.773 21.293C235.174 22.9466 234.12 24.2161 232.609 25.1016C231.112 25.974 229.27 26.4102 227.082 26.4102C225.611 26.4102 224.289 26.1888 223.117 25.7461C221.945 25.3034 220.949 24.6784 220.129 23.8711C219.322 23.0638 218.703 22.1198 218.273 21.0391C217.844 19.9453 217.629 18.7018 217.629 17.3086C217.629 15.9023 217.85 14.6393 218.293 13.5195C218.736 12.3867 219.361 11.4167 220.168 10.6094C220.975 9.80208 221.945 9.17708 223.078 8.73438C224.224 8.29167 225.493 8.07031 226.887 8.07031C228.293 8.07031 229.556 8.28516 230.676 8.71484C231.796 9.13151 232.746 9.74349 233.527 10.5508C234.309 11.3581 234.908 12.3411 235.324 13.5C235.754 14.6589 235.975 15.9935 235.988 17.5039L234.816 17.8555ZM232.824 16.0977C232.668 14.1315 232.082 12.6406 231.066 11.625C230.051 10.6094 228.671 10.1016 226.926 10.1016C226.105 10.1016 225.357 10.2448 224.68 10.5312C224.003 10.8047 223.41 11.1953 222.902 11.7031C222.395 12.1979 221.978 12.8099 221.652 13.5391C221.34 14.2682 221.125 15.1211 221.008 16.0977H232.824ZM253.469 15.5898C253.469 14.7305 253.423 13.9622 253.332 13.2852C253.254 12.5951 253.091 12.0091 252.844 11.5273C252.596 11.0456 252.245 10.6875 251.789 10.4531C251.333 10.2188 250.734 10.1016 249.992 10.1016C249.367 10.1016 248.807 10.1862 248.312 10.3555C247.818 10.5247 247.362 10.7526 246.945 11.0391C246.529 11.3255 246.132 11.651 245.754 12.0156C245.389 12.3802 245.005 12.7839 244.602 13.2266V21.4492C244.602 22.1914 244.595 22.7578 244.582 23.1484C244.582 23.5391 244.667 23.819 244.836 23.9883C245.018 24.1445 245.311 24.2292 245.715 24.2422C246.132 24.2552 246.73 24.2617 247.512 24.2617V26C247.173 26 246.841 26 246.516 26C246.19 26 245.852 26 245.5 26C245.148 26 244.777 26 244.387 26C243.996 25.987 243.566 25.974 243.098 25.9609C242.147 25.9609 241.307 25.9674 240.578 25.9805C239.849 25.9935 239.12 26 238.391 26V24.2617C239.107 24.2617 239.66 24.2422 240.051 24.2031C240.441 24.151 240.728 24.0859 240.91 24.0078C241.092 23.9167 241.197 23.806 241.223 23.6758C241.262 23.5326 241.281 23.3633 241.281 23.168V11.1562C241.281 10.9479 241.229 10.7852 241.125 10.668C241.034 10.5378 240.878 10.4466 240.656 10.3945C240.435 10.3294 240.142 10.2904 239.777 10.2773C239.426 10.2643 238.996 10.2578 238.488 10.2578V8.51953C238.749 8.51953 239.003 8.52604 239.25 8.53906C239.51 8.53906 239.823 8.53906 240.188 8.53906C240.891 8.53906 241.587 8.53255 242.277 8.51953C242.98 8.49349 243.684 8.46745 244.387 8.44141V11.332C245.259 10.3034 246.275 9.50911 247.434 8.94922C248.592 8.38932 249.868 8.09635 251.262 8.07031C252.421 8.07031 253.449 8.35677 254.348 8.92969C255.259 9.5026 255.943 10.3359 256.398 11.4297C257.349 10.362 258.41 9.53516 259.582 8.94922C260.754 8.36328 262.004 8.07031 263.332 8.07031C264.517 8.09635 265.474 8.30469 266.203 8.69531C266.945 9.08594 267.512 9.63281 267.902 10.3359C268.306 11.0391 268.573 11.8854 268.703 12.875C268.846 13.8646 268.924 14.9714 268.938 16.1953V23.3633C268.938 23.5846 268.983 23.7539 269.074 23.8711C269.165 23.9753 269.315 24.0534 269.523 24.1055C269.745 24.1576 270.031 24.1901 270.383 24.2031C270.734 24.2031 271.171 24.2096 271.691 24.2227V26C270.962 26 270.233 25.9935 269.504 25.9805C268.788 25.9674 267.961 25.9609 267.023 25.9609C266.568 25.9609 266.151 25.9674 265.773 25.9805C265.396 25.9805 265.038 25.9805 264.699 25.9805C264.361 25.9805 264.029 25.987 263.703 26C263.378 26 263.046 26 262.707 26V24.2227C263.267 24.2096 263.736 24.1966 264.113 24.1836C264.491 24.1576 264.79 24.112 265.012 24.0469C265.233 23.9688 265.389 23.8646 265.48 23.7344C265.585 23.5911 265.637 23.3893 265.637 23.1289V15.5898C265.637 14.6654 265.591 13.8581 265.5 13.168C265.409 12.4779 265.233 11.9049 264.973 11.4492C264.725 10.9805 264.374 10.6419 263.918 10.4336C263.462 10.2122 262.87 10.1016 262.141 10.1016C261.503 10.1016 260.93 10.2057 260.422 10.4141C259.914 10.6094 259.445 10.8568 259.016 11.1562C258.586 11.4427 258.189 11.7682 257.824 12.1328C257.473 12.4844 257.147 12.862 256.848 13.2656C256.822 13.7344 256.802 14.2096 256.789 14.6914C256.776 15.1732 256.77 15.668 256.77 16.1758V23.3047C256.77 23.5391 256.809 23.7214 256.887 23.8516C256.978 23.9688 257.121 24.0599 257.316 24.125C257.525 24.1771 257.805 24.2096 258.156 24.2227C258.521 24.2357 258.977 24.2487 259.523 24.2617V26C259.198 26 258.879 26 258.566 26C258.254 26 257.928 26 257.59 26C257.264 26 256.913 26 256.535 26C256.158 25.987 255.741 25.974 255.285 25.9609C254.803 25.9609 254.354 25.9674 253.938 25.9805C253.534 25.9805 253.143 25.9805 252.766 25.9805C252.388 25.9805 252.017 25.987 251.652 26C251.301 26 250.943 26 250.578 26V24.2617C251.125 24.2487 251.581 24.2357 251.945 24.2227C252.323 24.1966 252.622 24.151 252.844 24.0859C253.078 24.0078 253.241 23.8971 253.332 23.7539C253.423 23.6107 253.469 23.4219 253.469 23.1875V15.5898ZM283.215 8.07031C284.582 8.07031 285.839 8.28516 286.984 8.71484C288.13 9.14453 289.113 9.76302 289.934 10.5703C290.767 11.3776 291.411 12.3542 291.867 13.5C292.323 14.6458 292.551 15.9023 292.551 17.2695C292.551 18.5846 292.323 19.8151 291.867 20.9609C291.411 22.0938 290.773 23.0638 289.953 23.8711C289.133 24.6784 288.15 25.3034 287.004 25.7461C285.858 26.1888 284.595 26.4102 283.215 26.4102C281.835 26.4102 280.572 26.1953 279.426 25.7656C278.293 25.3229 277.316 24.6979 276.496 23.8906C275.676 23.0703 275.038 22.0938 274.582 20.9609C274.139 19.8151 273.918 18.5846 273.918 17.2695C273.918 15.9023 274.146 14.6523 274.602 13.5195C275.057 12.3737 275.695 11.3971 276.516 10.5898C277.336 9.76953 278.312 9.14453 279.445 8.71484C280.591 8.28516 281.848 8.07031 283.215 8.07031ZM283.215 10.1016C282.303 10.1016 281.483 10.2708 280.754 10.6094C280.025 10.9479 279.4 11.4232 278.879 12.0352C278.371 12.6471 277.98 13.4023 277.707 14.3008C277.434 15.1862 277.297 16.1693 277.297 17.25C277.297 18.2656 277.434 19.2227 277.707 20.1211C277.993 21.0065 278.391 21.7682 278.898 22.4062C279.419 23.0312 280.044 23.513 280.773 23.8516C281.503 24.1901 282.316 24.3594 283.215 24.3594C284.113 24.3594 284.927 24.1901 285.656 23.8516C286.385 23.513 287.01 23.0312 287.531 22.4062C288.052 21.7682 288.449 21.0065 288.723 20.1211C289.009 19.2227 289.152 18.2656 289.152 17.25C289.152 16.1823 289.009 15.1992 288.723 14.3008C288.449 13.4023 288.052 12.6471 287.531 12.0352C287.023 11.4232 286.398 10.9479 285.656 10.6094C284.927 10.2708 284.113 10.1016 283.215 10.1016ZM309.621 12.1914H308.449C308.189 11.5664 307.863 11.1432 307.473 10.9219C307.082 10.6875 306.548 10.5703 305.871 10.5703C305.233 10.5703 304.647 10.7201 304.113 11.0195C303.579 11.319 303.117 11.7487 302.727 12.3086C302.336 12.8555 302.03 13.5195 301.809 14.3008C301.6 15.069 301.49 15.9284 301.477 16.8789C301.464 16.8919 301.457 17.0547 301.457 17.3672C301.457 17.6667 301.451 18.0443 301.438 18.5C301.438 18.9557 301.438 19.4505 301.438 19.9844C301.438 20.5052 301.438 21 301.438 21.4688C301.438 21.9375 301.438 22.3346 301.438 22.6602C301.438 22.9727 301.438 23.1419 301.438 23.168C301.438 23.4414 301.49 23.6562 301.594 23.8125C301.711 23.9557 301.9 24.0664 302.16 24.1445C302.421 24.2096 302.766 24.2487 303.195 24.2617C303.625 24.2617 304.152 24.2617 304.777 24.2617V26C304.361 26 303.957 26 303.566 26C303.189 25.987 302.792 25.9805 302.375 25.9805C301.958 25.9805 301.516 25.9805 301.047 25.9805C300.591 25.9674 300.083 25.9609 299.523 25.9609C299.042 25.9609 298.605 25.9674 298.215 25.9805C297.824 25.9805 297.453 25.9805 297.102 25.9805C296.763 25.9805 296.431 25.987 296.105 26C295.78 26 295.441 26 295.09 26V24.2617C295.832 24.2617 296.405 24.2487 296.809 24.2227C297.225 24.1836 297.531 24.1185 297.727 24.0273C297.922 23.9362 298.033 23.806 298.059 23.6367C298.098 23.4674 298.117 23.2526 298.117 22.9922V11.1562C298.117 10.9349 298.078 10.7656 298 10.6484C297.935 10.5182 297.792 10.4271 297.57 10.375C297.362 10.3099 297.062 10.2773 296.672 10.2773C296.294 10.2643 295.799 10.2578 295.188 10.2578V8.51953C295.331 8.51953 295.552 8.52604 295.852 8.53906C296.164 8.53906 296.47 8.53906 296.77 8.53906H297.922C298.469 8.53906 299.016 8.52604 299.562 8.5C300.122 8.47396 300.695 8.45443 301.281 8.44141V11.9961C301.906 10.7721 302.772 9.8151 303.879 9.125C304.999 8.42188 306.32 8.07031 307.844 8.07031C308.417 8.07031 309.009 8.10938 309.621 8.1875V12.1914ZM316.438 0.316406C317.089 0.316406 317.603 0.479167 317.98 0.804688C318.358 1.11719 318.547 1.55339 318.547 2.11328C318.547 2.6862 318.358 3.14193 317.98 3.48047C317.616 3.80599 317.102 3.96875 316.438 3.96875C315.786 3.96875 315.279 3.80599 314.914 3.48047C314.549 3.15495 314.367 2.69922 314.367 2.11328C314.367 1.55339 314.549 1.11719 314.914 0.804688C315.279 0.479167 315.786 0.316406 316.438 0.316406ZM318.488 22.9531C318.488 23.2656 318.54 23.513 318.645 23.6953C318.749 23.8646 318.918 23.9948 319.152 24.0859C319.387 24.1641 319.686 24.2161 320.051 24.2422C320.428 24.2552 320.884 24.2617 321.418 24.2617V26C321.079 26 320.624 26 320.051 26C319.478 25.987 318.905 25.9805 318.332 25.9805C317.759 25.9805 317.251 25.9805 316.809 25.9805C316.366 25.9674 316.105 25.9609 316.027 25.9609C315.285 25.9609 314.628 25.9674 314.055 25.9805C313.495 25.9935 312.915 26 312.316 26V24.2617C313.02 24.2617 313.566 24.2422 313.957 24.2031C314.348 24.1641 314.634 24.099 314.816 24.0078C315.012 23.9167 315.122 23.793 315.148 23.6367C315.188 23.4674 315.207 23.2526 315.207 22.9922V10.9609C315.207 10.7786 315.155 10.6419 315.051 10.5508C314.96 10.4596 314.803 10.3945 314.582 10.3555C314.361 10.3034 314.068 10.2773 313.703 10.2773C313.352 10.2643 312.922 10.2578 312.414 10.2578V8.51953C313.521 8.51953 314.562 8.51302 315.539 8.5C316.516 8.48698 317.499 8.46094 318.488 8.42188V22.9531ZM340.91 17.8555H327.082C327.095 18.8971 327.258 19.8151 327.57 20.6094C327.883 21.4036 328.326 22.0807 328.898 22.6406C329.471 23.1875 330.155 23.6107 330.949 23.9102C331.757 24.2096 332.648 24.3594 333.625 24.3594C334.992 24.3594 336.177 24.0794 337.18 23.5195C338.182 22.9596 338.957 22.0938 339.504 20.9219L341.867 21.293C341.268 22.9466 340.214 24.2161 338.703 25.1016C337.206 25.974 335.363 26.4102 333.176 26.4102C331.704 26.4102 330.383 26.1888 329.211 25.7461C328.039 25.3034 327.043 24.6784 326.223 23.8711C325.415 23.0638 324.797 22.1198 324.367 21.0391C323.938 19.9453 323.723 18.7018 323.723 17.3086C323.723 15.9023 323.944 14.6393 324.387 13.5195C324.829 12.3867 325.454 11.4167 326.262 10.6094C327.069 9.80208 328.039 9.17708 329.172 8.73438C330.318 8.29167 331.587 8.07031 332.98 8.07031C334.387 8.07031 335.65 8.28516 336.77 8.71484C337.889 9.13151 338.84 9.74349 339.621 10.5508C340.402 11.3581 341.001 12.3411 341.418 13.5C341.848 14.6589 342.069 15.9935 342.082 17.5039L340.91 17.8555ZM338.918 16.0977C338.762 14.1315 338.176 12.6406 337.16 11.625C336.145 10.6094 334.764 10.1016 333.02 10.1016C332.199 10.1016 331.451 10.2448 330.773 10.5312C330.096 10.8047 329.504 11.1953 328.996 11.7031C328.488 12.1979 328.072 12.8099 327.746 13.5391C327.434 14.2682 327.219 15.1211 327.102 16.0977H338.918ZM359.25 13.9297H357.414C357.362 12.6276 356.926 11.625 356.105 10.9219C355.298 10.2057 354.126 9.84766 352.59 9.84766C351.939 9.84766 351.372 9.92578 350.891 10.082C350.409 10.2383 350.005 10.4466 349.68 10.707C349.354 10.9674 349.113 11.2734 348.957 11.625C348.801 11.9635 348.723 12.3151 348.723 12.6797C348.723 13.0833 348.827 13.4414 349.035 13.7539C349.257 14.0534 349.562 14.3203 349.953 14.5547C350.344 14.7891 350.806 14.9974 351.34 15.1797C351.887 15.362 352.486 15.5378 353.137 15.707C354.191 15.9805 355.142 16.2669 355.988 16.5664C356.848 16.8659 357.57 17.224 358.156 17.6406C358.755 18.0443 359.217 18.5391 359.543 19.125C359.868 19.6979 360.031 20.4076 360.031 21.2539C360.031 22.0872 359.862 22.8229 359.523 23.4609C359.185 24.099 358.703 24.6393 358.078 25.082C357.466 25.5117 356.724 25.8372 355.852 26.0586C354.979 26.293 354.009 26.4102 352.941 26.4102C351.587 26.4102 350.461 26.2474 349.562 25.9219C348.664 25.5964 347.928 25.082 347.355 24.3789L347.16 26C346.861 25.987 346.574 25.9805 346.301 25.9805C346.027 25.9674 345.741 25.974 345.441 26V20.1992H347.336C347.414 21.7096 347.902 22.8164 348.801 23.5195C349.699 24.2096 350.93 24.5547 352.492 24.5547C353.156 24.5547 353.762 24.4896 354.309 24.3594C354.868 24.2161 355.344 24.0273 355.734 23.793C356.125 23.5586 356.431 23.2721 356.652 22.9336C356.874 22.5951 356.984 22.1914 356.984 21.7227C356.984 21.2148 356.828 20.7852 356.516 20.4336C356.216 20.082 355.806 19.776 355.285 19.5156C354.777 19.2422 354.178 19.0078 353.488 18.8125C352.811 18.6042 352.095 18.3893 351.34 18.168C350.415 17.8815 349.602 17.5885 348.898 17.2891C348.208 16.9766 347.629 16.625 347.16 16.2344C346.691 15.8438 346.34 15.388 346.105 14.8672C345.871 14.3464 345.754 13.7344 345.754 13.0312C345.754 12.3542 345.897 11.7161 346.184 11.1172C346.483 10.5182 346.906 9.99089 347.453 9.53516C348 9.06641 348.658 8.70833 349.426 8.46094C350.207 8.20052 351.079 8.07031 352.043 8.07031C353.111 8.07031 354.12 8.22656 355.07 8.53906C356.021 8.83854 356.789 9.29427 357.375 9.90625C357.375 9.89323 357.395 9.82161 357.434 9.69141C357.486 9.54818 357.538 9.39193 357.59 9.22266C357.642 9.02734 357.707 8.79297 357.785 8.51953C358.02 8.53255 358.241 8.53906 358.449 8.53906C358.632 8.53906 358.794 8.53906 358.938 8.53906C359.094 8.52604 359.198 8.51953 359.25 8.51953V13.9297ZM366.223 22.6406C366.587 22.6406 366.9 22.6927 367.16 22.7969C367.434 22.888 367.655 23.0182 367.824 23.1875C368.007 23.3438 368.137 23.526 368.215 23.7344C368.293 23.9427 368.332 24.1641 368.332 24.3984C368.332 24.8672 368.169 25.2839 367.844 25.6484C367.518 26 366.978 26.1758 366.223 26.1758C365.467 26.1758 364.927 26.0065 364.602 25.668C364.289 25.3164 364.133 24.8932 364.133 24.3984C364.133 24.1641 364.172 23.9427 364.25 23.7344C364.328 23.526 364.452 23.3438 364.621 23.1875C364.79 23.0182 365.005 22.888 365.266 22.7969C365.526 22.6927 365.845 22.6406 366.223 22.6406Z" fill="black"/>
</svg>
